# Blender v2.76 (sub 0) OBJ File: ''
# www.blender.org
mtllib island.mtl
o Circle
v 0.000000 0.176173 0.000000
v 0.000000 0.000000 -2.000000
v -0.390181 0.000000 -1.961571
v -0.765367 0.000000 -1.847759
v -1.111140 0.000000 -1.662939
v -1.414214 0.000000 -1.414214
v -1.662939 0.000000 -1.111140
v -1.847759 0.000000 -0.765367
v -1.961571 0.000000 -0.390181
v -2.000000 -0.006319 -0.000000
v -1.961571 0.000000 0.390180
v -1.847759 0.000000 0.765367
v -1.662939 0.000000 1.111140
v -1.414214 0.000000 1.414214
v -1.111140 0.000000 1.662939
v -0.765367 0.000000 1.847759
v -0.390180 0.000000 1.961571
v 0.000001 0.000000 2.000000
v 0.390181 0.000000 1.961570
v 0.765368 0.000000 1.847759
v 1.111141 0.000000 1.662939
v 1.414214 0.000000 1.414213
v 1.662940 0.000000 1.111139
v 1.847760 0.000000 0.765365
v 1.961571 0.000000 0.390179
v 2.000000 -0.006319 -0.000002
v 1.961570 0.000000 -0.390183
v 1.847758 0.000000 -0.765369
v 1.662938 0.000000 -1.111143
v 1.414212 0.000000 -1.414215
v 1.111138 0.000000 -1.662941
v 0.765364 0.000000 -1.847760
v 0.390178 0.000000 -1.961571
vn -0.008600 0.996100 -0.087700
vn -0.025600 0.996100 -0.084400
vn -0.041600 0.996100 -0.077800
vn -0.055900 0.996100 -0.068200
vn -0.068200 0.996100 -0.055900
vn -0.077800 0.996100 -0.041600
vn -0.084400 0.996100 -0.025600
vn -0.090900 0.995800 0.007200
vn -0.090900 0.995800 -0.007200
vn -0.084400 0.996100 0.025600
vn -0.077800 0.996100 0.041600
vn -0.068200 0.996100 0.055900
vn -0.055900 0.996100 0.068200
vn -0.041600 0.996100 0.077800
vn -0.025600 0.996100 0.084400
vn -0.008600 0.996100 0.087700
vn 0.008600 0.996100 0.087700
vn 0.025600 0.996100 0.084400
vn 0.041600 0.996100 0.077800
vn 0.055900 0.996100 0.068200
vn 0.068200 0.996100 0.055900
vn 0.077800 0.996100 0.041600
vn 0.084400 0.996100 0.025600
vn 0.090900 0.995800 -0.007200
vn 0.090900 0.995800 0.007200
vn 0.084400 0.996100 -0.025600
vn 0.077800 0.996100 -0.041600
vn 0.068200 0.996100 -0.055900
vn 0.055900 0.996100 -0.068200
vn 0.041600 0.996100 -0.077800
vn 0.025600 0.996100 -0.084400
vn 0.008600 0.996100 -0.087700
usemtl None
s off
f 1//1 2//1 3//1
f 1//2 3//2 4//2
f 1//3 4//3 5//3
f 1//4 5//4 6//4
f 1//5 6//5 7//5
f 1//6 7//6 8//6
f 1//7 8//7 9//7
f 1//8 9//8 10//8
f 1//9 10//9 11//9
f 1//10 11//10 12//10
f 1//11 12//11 13//11
f 1//12 13//12 14//12
f 1//13 14//13 15//13
f 1//14 15//14 16//14
f 1//15 16//15 17//15
f 1//16 17//16 18//16
f 1//17 18//17 19//17
f 1//18 19//18 20//18
f 1//19 20//19 21//19
f 1//20 21//20 22//20
f 1//21 22//21 23//21
f 1//22 23//22 24//22
f 1//23 24//23 25//23
f 1//24 25//24 26//24
f 1//25 26//25 27//25
f 1//26 27//26 28//26
f 1//27 28//27 29//27
f 1//28 29//28 30//28
f 1//29 30//29 31//29
f 1//30 31//30 32//30
f 1//31 32//31 33//31
f 1//32 33//32 2//32
